PathFileType	4	(X/Y/Z)	pose_F01_0-93.trc
DataRate	CameraRate	NumFrames	NumMarkers	Units	OrigDataRate	OrigDataStartFrame	OrigNumFrames
30	30	12	21	m	30	15	93
Frame#	Time	CHip			RHip			RKnee			RAnkle			RBigToe			RSmallToe			RHeel			LHip			LKnee			LAnkle			LBigToe			LSmallToe			LHeel			Neck			Nose			RShoulder			RElbow			RWrist			LShoulder			LElbow			LWrist			
		X1	Y1	Z1	X2	Y2	Z2	X3	Y3	Z3	X4	Y4	Z4	X5	Y5	Z5	X6	Y6	Z6	X7	Y7	Z7	X8	Y8	Z8	X9	Y9	Z9	X10	Y10	Z10	X11	Y11	Z11	X12	Y12	Z12	X13	Y13	Z13	X14	Y14	Z14	X15	Y15	Z15	X16	Y16	Z16	X17	Y17	Z17	X18	Y18	Z18	X19	Y19	Z19	X20	Y20	Z20	X21	Y21	Z21	
15	0.5	-0.23945711378731183	1.827604532170554	-0.566541379956547	-0.25461029447826633	1.8278940935065728	-0.4982933923583014	-0.26972021978572996	1.69747166855283	-0.5221042813733211													-0.22134916858576656	1.8317961219731669	-0.6285717982177743	-0.2313955957403922	1.6932648784804147	-0.6282927853414986													-0.24036269497329424	1.9945837932011294	-0.6017998911509356	-0.22798255155728378	2.0612651367126875	-0.5769888037789592	-0.26389005441984215	1.9902296017360284	-0.5086205629400783	-0.27449319162777525	1.8996621031378282	-0.46310973631077695	-0.27163459046444105	1.823952567274899	-0.4302309175467	-0.21194151334441017	1.9968386737469328	-0.696791639986972	-0.20047376239193265	1.9052184637151106	-0.718837230015453	-0.1969588611503613	1.8212749728659805	-0.7029023962826733
16	0.5333333333333333	-0.23956761251422956	1.8315859690523986	-0.5670266028078901	-0.25575178868714893	1.8288224850710189	-0.5015590838489766	-0.26972021978572996	1.69747166855283	-0.5221042813733211													-0.22170919309613032	1.835737176082072	-0.6289592046824891	-0.23114842047496925	1.6931528609546813	-0.627510276163642													-0.24036604093536038	1.9945527888826462	-0.6018299626573688	-0.22602244771472066	2.0613005145973995	-0.5791369721473016	-0.2638770153929479	1.9901845189044869	-0.5086389194115579	-0.27348006917208334	1.8997870937940426	-0.45984790006587606	-0.2707934075589196	1.8198324250953002	-0.42650366110770277	-0.21267378939223347	1.9980768701011855	-0.6997343142548095	-0.20175716139794134	1.9046723924734963	-0.7135829640122064	-0.19757167818730956	1.8219458711822722	-0.7062123259771582
17	0.5666666666666667	-0.23966419006789855	1.8295457528593126	-0.5666254733364655	-0.2546859579152789	1.827876950964128	-0.49819746674431503	-0.26972021978572996	1.69747166855283	-0.5221042813733211													-0.22150080732126845	1.8333899281197463	-0.6287124938162011	-0.23104567799336043	1.693030468354531	-0.6257699059530387													-0.24030389909810046	1.9933987881706483	-0.6013587916052173	-0.22603460437096495	2.0612574709244273	-0.579108056157138	-0.2629314834456411	1.990013324441372	-0.5054997067323727	-0.2736093218350803	1.8989255508487355	-0.45960060869395297	-0.270889921450537	1.8207245363768942	-0.426457069391185	-0.21194489582468268	1.9967964577461248	-0.6968104818399649	-0.20262168196296942	1.9046739505532555	-0.7165030651697312	-0.19798625800192782	1.8231064323165684	-0.706075711179142
18	0.6	-0.24071425304260324	1.8318097196920282	-0.5616489669224799	-0.2546295615388346	1.8296772434006108	-0.4984575108865742	-0.26972021978572996	1.69747166855283	-0.5221042813733211													-0.22074157821656776	1.836812219778206	-0.625896315722652	-0.2309429355117516	1.6929080757543808	-0.6240295357424355													-0.2394504646261683	1.9931570012496524	-0.5983373506389036	-0.2261169618933106	2.0601164600770123	-0.5791873216277339	-0.26482555456668216	1.9897628263488438	-0.503338713243618	-0.2735638658032186	1.901458386692671	-0.45995430407921134	-0.2728277917215147	1.8239755831082352	-0.4249114086355826	-0.21195719801512708	1.996696502725439	-0.696780204290413	-0.20479332602136532	1.9041474047167162	-0.7142473144806523	-0.19805348111018095	1.8201592642871796	-0.7056163483182588
19	0.6333333333333333	-0.24058300374137676	1.8307369657821224	-0.5614366015918772	-0.2536521976017163	1.8298736567034084	-0.4952152285077962	-0.26972021978572996	1.69747166855283	-0.5221042813733211													-0.2204795020977028	1.834324824507812	-0.6256712430399545	-0.23084019303014278	1.6927856831542305	-0.6222891655318322													-0.2394320523723818	1.993249924691873	-0.5983033393926985	-0.22800405777105184	2.0611655834456495	-0.5769792561968925	-0.26467038238128276	1.991057162918442	-0.5033573025718152	-0.2733784540543626	1.9011340777294399	-0.45985325543877625	-0.27266218186454944	1.8224154186024728	-0.4246244488471366	-0.21185227574540325	1.9979603524694216	-0.6966650065002523	-0.2048081304131641	1.9040847828626104	-0.7144311771727959	-0.1978988101231198	1.8213374996663645	-0.7058610599418974
20	0.6666666666666666	-0.24068529272241415	1.8312989194255287	-0.5613911440715069	-0.2555056795968543	1.828968023188864	-0.4929191878506889	-0.26972021978572996	1.69747166855283	-0.5221042813733211													-0.2234498132875482	1.8347708909267726	-0.6265744498178882	-0.23073745054853398	1.6926632905540804	-0.620548795321229													-0.24147260967696282	1.993340682518965	-0.5960872480397978	-0.2270986724549302	2.061065458005366	-0.5739872855516056	-0.26476954618778153	1.9911176641354837	-0.5032314817567264	-0.2742430620256965	1.9009841151370732	-0.4545709532315891	-0.2727096920055247	1.8199214576896592	-0.42415723949614675	-0.21114084819790693	1.9968036588444713	-0.6936536401622511	-0.2048200174573801	1.9045238937047835	-0.7142234338719035	-0.19797265573080405	1.8217388702485018	-0.7059963066716626
21	0.7	-0.24332403002191655	1.8273292359422777	-0.558487205830916	-0.2580438557427591	1.8245170151071968	-0.4899897304213951	-0.26972021978572996	1.69747166855283	-0.5221042813733211													-0.2240620393829751	1.8301814522628637	-0.6258931604577682	-0.23063470806692515	1.69254089795393	-0.6188084251106257													-0.24147212276399724	1.993191315614077	-0.5959882282997151	-0.22710572332612644	2.061200378426947	-0.5738705698182025	-0.2638182962965885	1.990815922250038	-0.5000468226714838	-0.27452719487808513	1.9009705023208263	-0.45454550996528303	-0.2739944807426649	1.8192694216978154	-0.4186826160060935	-0.2111566205771359	1.9966815483112714	-0.6936458443685783	-0.20578942495937888	1.9071373241734304	-0.7177077173279466	-0.19985631911679494	1.8253777911774114	-0.712411739584952
22	0.7333333333333333	-0.24419142878321864	1.8315802410818027	-0.5536014198596967	-0.26080186725529536	1.828465680144473	-0.48290049115098993	-0.26972021978572996	1.69747166855283	-0.5221042813733211													-0.2248838121300023	1.8326869790590201	-0.6209773166085075	-0.23053196558531633	1.69241850535378	-0.6170680549000225													-0.24264997398909577	1.9931174087452284	-0.5908218856409896	-0.22825235382433584	2.060857832825699	-0.5686830193046938	-0.26577837459383796	1.9907341362209237	-0.49802778684095933	-0.27736253178073	1.903642361523616	-0.4474556769867997	-0.2813982720451767	1.824064291934457	-0.4107666313068913	-0.21320783586378936	1.99773143779327	-0.6912382667495359	-0.20420432394868496	1.910900390666663	-0.7234095189910184	-0.19938869417369642	1.8295818426033486	-0.7134099398178013
23	0.7666666666666667	-0.2462957361094843	1.8320811186589516	-0.551428596172741	-0.2611265303852397	1.8276131856880828	-0.4826728859175432	-0.26972021978572996	1.69747166855283	-0.5221042813733211													-0.2270691940473644	1.8352656342540645	-0.6190185530951501	-0.2304292231037075	1.6922961127536296	-0.6153276846894192													-0.24275196233410778	1.9942198968471803	-0.5910307369126434	-0.22829055847842752	2.0608013289485565	-0.5686046036083394	-0.2658604354910778	1.9906665343843843	-0.4979455022868323	-0.2830817137302498	1.9065487483716113	-0.44138913641492955	-0.27989585597886385	1.82950597668556	-0.40806636947279823	-0.214459193940061	1.9973868916041713	-0.6860741412873322	-1.2460492808012942	1.821508723642389	0.32911827275727484	-0.19773606769444518	1.8361510513644475	-0.7192456979431601
24	0.8	-0.2459925346126422	1.835299865664741	-0.5518843549404038	-0.2606338204209462	1.8322812211625117	-0.48340916213964213	-0.26972021978572996	1.69747166855283	-0.5221042813733211													-0.22694114753287853	1.8369704301240315	-0.6191920392954255	-0.22897132624205618	1.6940074493361013	-0.6104887594695693													-0.2438454952924142	1.9940199329903805	-0.5857550167122775	-0.2283227750537555	2.0608169243843717	-0.5685420977990078	-0.2666692097603092	1.9912565911179483	-0.49255046853694834	-0.28959710550666207	1.9103981611802592	-0.4298011325599781	-0.2703609102096015	1.841484904371115	-0.3976797634314089	-0.21667981095184174	1.9970106728198134	-0.6836775862378	-1.2161200387604765	1.8229747423825395	0.27868764262183077	-0.18996039010614124	1.8818932717883112	-0.7174874725161653
25	0.8333333333333334	-0.24445466251821937	1.8342095415928925	-0.5536528876042462	-0.2611266584380138	1.832089842478673	-0.48331880114727244	-0.26972021978572996	1.69747166855283	-0.5221042813733211													-0.22645566400548262	1.8362542960367787	-0.6158084942056042	-0.22751342938040486	1.6957187859185727	-0.6056498342497193													-0.24381934676233488	1.9941503895185202	-0.5857001070732852	-0.22833257201881896	2.0597268748800968	-0.5686991429569179	-0.26578347229417515	1.9914955324550296	-0.4899547106711572	-0.2896355419904376	1.9180168098403232	-0.42296477858334786	-0.261870842984019	1.8892058963674159	-0.39319690997599843	-0.21669787380230995	1.9971843466940142	-0.6836374290668055	-1.2043780030277602	1.8292848263578794	0.2545248844696764	-0.1821847125178373	1.927635492212175	-0.7157292470891704
26	0.8666666666666667	-0.24539335846125462	1.833180631417701	-0.5571303717378835	-0.2610166159566846	1.829434958341266	-0.4917075043548654	-0.26972021978572996	1.69747166855283	-0.5221042813733211													-0.22512161357690735	1.8369447030384158	-0.621542339174401	-0.22487379928013898	1.6990202806013945	-0.6045171013840656													-0.24173114557084588	1.9951248332017888	-0.5879819231371098	-0.22725028163642463	2.058360915299514	-0.5734060049044858	-0.2648217441256255	1.9915602662028644	-0.49516073300848723	-0.28793618543103844	1.9255849750808345	-0.40327317621304926	-0.25338077575843654	1.9369268883637165	-0.38871405652058794	-0.2166341996077366	1.9993037036147572	-0.6840778954272501	-1.2081527239745196	1.844824444120839	0.26568231851676316	-0.17440903492953333	1.9733777126360388	-0.7139710216621755
